<?xml version="1.0" standalone="no"?>
<!DOCTYPE svg PUBLIC "-//W3C//DTD SVG 20010904//EN"
 "http://www.w3.org/TR/2001/REC-SVG-20010904/DTD/svg10.dtd">
<svg version="1.0" xmlns="http://www.w3.org/2000/svg"
 width="225.000000pt" height="225.000000pt" viewBox="0 0 225.000000 225.000000"
 preserveAspectRatio="xMidYMid meet">
<metadata>
Created by potrace 1.11, written by Peter Selinger 2001-2013
</metadata>
<g transform="translate(0.000000,225.000000) scale(0.100000,-0.100000)"
fill="#000000" stroke="none">
<path d="M975 2239 c-591 -74 -1031 -633 -966 -1228 67 -620 618 -1069 1230
-1002 459 49 838 366 965 805 95 328 29 702 -172 972 -251 336 -643 504 -1057
453z m-175 -340 c87 -14 159 -48 219 -104 95 -89 131 -183 131 -345 l1 -95 17
47 c39 106 115 179 231 218 216 73 437 -4 520 -179 21 -46 26 -71 26 -136 0
-69 -4 -87 -27 -129 l-28 -48 38 -37 c65 -63 87 -121 87 -231 0 -81 -4 -103
-25 -145 -35 -72 -105 -138 -173 -164 -54 -20 -75 -21 -362 -21 l-305 0 0 127
c0 117 2 129 22 150 l22 23 33 -32 c32 -31 33 -31 47 -13 13 18 11 23 -15 53
-16 18 -29 34 -29 36 0 1 7 24 16 50 18 52 18 51 -13 60 -18 6 -22 2 -28 -24
-4 -16 -10 -30 -13 -30 -4 0 -21 22 -39 50 l-32 49 34 34 c30 30 35 42 35 80
0 38 -5 49 -31 71 -43 37 -83 34 -125 -8 -40 -40 -44 -73 -14 -129 l21 -38
-31 -26 c-64 -53 -77 -125 -35 -187 l24 -36 -94 0 -95 0 0 165 0 165 -80 0
-80 0 0 -165 0 -165 -170 0 -171 0 3 403 3 402 32 67 c69 147 205 238 368 247
11 0 49 -4 85 -10z m334 -725 c13 -34 6 -73 -16 -89 -22 -15 -24 -14 -45 10
-25 29 -28 47 -13 76 13 24 65 26 74 3z m-16 -234 c23 -33 42 -64 42 -69 0
-19 -54 -51 -86 -51 -28 0 -38 6 -54 33 -11 17 -20 42 -20 54 0 21 54 93 69
93 3 0 25 -27 49 -60z"/>
<path d="M692 1578 c-27 -14 -45 -68 -40 -128 l3 -45 75 0 75 0 -2 70 c-1 62
-4 72 -28 92 -28 25 -48 27 -83 11z"/>
<path d="M1517 1328 c-11 -8 -20 -33 -24 -67 l-6 -54 42 6 c23 3 51 13 62 23
54 48 -16 134 -74 92z"/>
<path d="M1490 896 l0 -76 33 0 c82 0 127 29 127 83 0 38 -32 58 -99 64 l-61
6 0 -77z"/>
</g>
</svg>
